HIERARCHY
ROOT Hips
{
	OFFSET 0.00000 0.00000 0.00000
	CHANNELS 6 Xposition Yposition Zposition Zrotation Yrotation Xrotation 
	JOINT LHipJoint
	{
		OFFSET 0 0 0
		CHANNELS 3 Zrotation Yrotation Xrotation
		JOINT LeftUpLeg
		{
			OFFSET 1.34019 -1.87553 0.90315
			CHANNELS 3 Zrotation Yrotation Xrotation
			JOINT LeftLeg
			{
				OFFSET 2.55316 -7.01474 0.00000
				CHANNELS 3 Zrotation Yrotation Xrotation
				JOINT LeftFoot
				{
					OFFSET 2.64657 -7.27139 0.00000
					CHANNELS 3 Zrotation Yrotation Xrotation
					JOINT LeftToeBase
					{
						OFFSET 0.24207 -0.66507 2.14489
						CHANNELS 3 Zrotation Yrotation Xrotation
						End Site
						{
							OFFSET 0.00000 -0.00000 1.12451
						}
					}
				}
			}
		}
	}
	JOINT RHipJoint
	{
		OFFSET 0 0 0
		CHANNELS 3 Zrotation Yrotation Xrotation
		JOINT RightUpLeg
		{
			OFFSET -1.28320 -1.87553 0.90315
			CHANNELS 3 Zrotation Yrotation Xrotation
			JOINT RightLeg
			{
				OFFSET -2.60484 -7.15674 0.00000
				CHANNELS 3 Zrotation Yrotation Xrotation
				JOINT RightFoot
				{
					OFFSET -2.60296 -7.15159 0.00000
					CHANNELS 3 Zrotation Yrotation Xrotation
					JOINT RightToeBase
					{
						OFFSET -0.31082 -0.85398 2.28998
						CHANNELS 3 Zrotation Yrotation Xrotation
						End Site
						{
							OFFSET -0.00000 -0.00000 1.21611
						}
					}
				}
			}
		}
	}
	JOINT LowerBack
	{
		OFFSET 0 0 0
		CHANNELS 3 Zrotation Yrotation Xrotation
		JOINT Spine
		{
			OFFSET -0.00160 2.05581 -0.15156
			CHANNELS 3 Zrotation Yrotation Xrotation
			JOINT Spine1
			{
				OFFSET 0.04594 2.06326 -0.01617
				CHANNELS 3 Zrotation Yrotation Xrotation
				JOINT Neck
				{
					OFFSET 0 0 0
					CHANNELS 3 Zrotation Yrotation Xrotation
					JOINT Neck1
					{
						OFFSET 0.03753 1.73883 0.26751
						CHANNELS 3 Zrotation Yrotation Xrotation
						JOINT Head
						{
							OFFSET -0.09795 1.76129 -0.31794
							CHANNELS 3 Zrotation Yrotation Xrotation
							End Site
							{
								OFFSET -0.03611 1.79987 -0.13846
							}
						}
					}
				}
				JOINT LeftShoulder
				{
					OFFSET 0 0 0
					CHANNELS 3 Zrotation Yrotation Xrotation
					JOINT LeftArm
					{
						OFFSET 3.30667 1.29205 -0.22445
						CHANNELS 3 Zrotation Yrotation Xrotation
						JOINT LeftForeArm
						{
							OFFSET 4.92785 -0.00000 -0.00000
							CHANNELS 3 Zrotation Yrotation Xrotation
							JOINT LeftHand
							{
								OFFSET 3.44052 -0.00000 0.00000
								CHANNELS 3 Zrotation Yrotation Xrotation
								JOINT LeftFingerBase
								{
									OFFSET 0 0 0
									CHANNELS 3 Zrotation Yrotation Xrotation
									JOINT LeftHandIndex1
									{
										OFFSET 0.65433 -0.00000 0.00000
										CHANNELS 3 Zrotation Yrotation Xrotation
										End Site
										{
											OFFSET 0.52753 -0.00000 0.00000
										}
									}
								}
								JOINT LThumb
								{
									OFFSET 0 0 0
									CHANNELS 3 Zrotation Yrotation Xrotation
									End Site
									{
										OFFSET 0.53559 -0.00000 0.53559
									}
								}
							}
						}
					}
				}
				JOINT RightShoulder
				{
					OFFSET 0 0 0
					CHANNELS 3 Zrotation Yrotation Xrotation
					JOINT RightArm
					{
						OFFSET -3.20032 1.49783 -0.27688
						CHANNELS 3 Zrotation Yrotation Xrotation
						JOINT RightForeArm
						{
							OFFSET -5.09181 -0.00000 -0.00000
							CHANNELS 3 Zrotation Yrotation Xrotation
							JOINT RightHand
							{
								OFFSET -3.49865 -0.00000 -0.00000
								CHANNELS 3 Zrotation Yrotation Xrotation
								JOINT RightFingerBase
								{
									OFFSET 0 0 0
									CHANNELS 3 Zrotation Yrotation Xrotation
									JOINT RightHandIndex1
									{
										OFFSET -0.66641 -0.00000 0.00000
										CHANNELS 3 Zrotation Yrotation Xrotation
										End Site
										{
											OFFSET -0.53728 -0.00000 0.00000
										}
									}
								}
								JOINT RThumb
								{
									OFFSET 0 0 0
									CHANNELS 3 Zrotation Yrotation Xrotation
									End Site
									{
										OFFSET -0.54548 -0.00000 0.54548
									}
								}
							}
						}
					}
				}
			}
		}
	}
}
MOTION
Frames: 10
Frame Time: .0083333
-0.7072 17.057 -26.2689 0 0 0 0 0 0 -21 0 0 0 0 0 0 0 0 0 0 0 0 0 0 21 0 0 0 0 0 0 0 0 0 0 0 0 0 0 0 0 0 0 0 0 0 0 -16 0 0 21 0 0 11 0 0 0 -8 0 0 0 0 0 0 0 0 0 0 0 0 0 0 0 0 0 0 0 0 8 0 0 0 0 0 0 0 0 0 0 0 0 0 0 0 0 0
-0.7072 17.0570 -26.2689 -8.4448 1.0943 7.8225 0.0000 0.0000 0.0000 2.2582 -15.2851 -44.6564 2.7970 10.3590 30.1472 0.1121 7.0960 -12.3876 0.8363 -5.8338 -16.3031 0.0000 0.0000 0.0000 32.1178 -0.5169 6.7253 -0.8970 -6.0362 16.8894 0.2963 -22.2727 -29.3557 -0.0011 0.2136 -0.5870 8.8957 0.2212 9.4784 5.5327 1.4773 0.9701 0.6136 0.6182 -4.2424 11.7015 2.5452 -16.8822 -11.5361 2.0118 5.0899 -5.3763 0.5216 4.5046 0.0000 -0.0000 0.0000 -82.4223 5.5305 44.7868 28.6979 -39.7509 -10.5670 -0.0000 0.0000 -12.1034 10.6285 -2.4464 -0.4589 -7.1250 0.0000 -0.0000 -12.2036 27.4250 5.3238 0.0000 -0.0000 0.0000 85.8803 -8.0134 15.3415 -15.6803 25.0852 -3.5093 0.0000 -0.0000 -3.7632 -20.8809 -6.3721 2.4244 7.1250 -0.0000 -0.0000 4.9580 -36.7564 1.0084
-0.6947 17.0115 -26.1347 -8.5619 1.5466 7.9455 0.0000 0.0000 0.0000 2.4552 -15.6034 -45.3236 2.9878 10.6752 31.1922 0.1190 6.5729 -11.9121 0.8598 -5.9130 -16.5322 0.0000 0.0000 0.0000 32.3389 -0.8316 7.2122 -0.8524 -5.8881 16.4601 0.3371 -22.6369 -29.6101 -0.0010 0.2065 -0.5673 8.6354 -0.0754 9.4049 6.0202 1.0156 1.5036 1.3256 0.4243 -3.6761 10.3890 3.0159 -18.6249 -11.2916 2.7442 5.0598 -5.0157 0.8173 4.8383 0.0000 -0.0000 0.0000 -83.7717 4.8776 43.1223 28.8225 -39.8625 -10.6468 -0.0000 0.0000 -11.8250 10.7673 -2.6290 -0.4998 -7.1250 0.0000 -0.0000 -12.0798 27.2434 5.3204 0.0000 -0.0000 0.0000 84.9400 -6.3165 17.0541 -15.2257 24.4596 -3.3189 0.0000 -0.0000 -3.5672 -20.8336 -6.3587 2.4133 7.1250 -0.0000 -0.0000 4.9964 -36.7394 1.0183
-0.6819 16.9637 -25.9981 -8.6760 1.9947 8.0750 0.0000 0.0000 0.0000 2.6392 -15.8723 -46.2045 3.2838 11.1409 32.7567 0.1310 6.0451 -11.5499 0.8747 -5.9627 -16.6761 0.0000 0.0000 0.0000 32.5666 -1.0775 7.5343 -0.8447 -5.8624 16.3856 0.3374 -22.9566 -30.0917 -0.0011 0.2140 -0.5879 8.5737 -0.1587 9.3904 6.2601 0.8805 1.7672 1.6271 0.3717 -3.4005 9.5815 3.1991 -19.6179 -11.1561 3.0725 4.8805 -4.8056 0.9416 4.9607 0.0000 0.0000 0.0000 -84.5506 4.6015 42.2281 28.9733 -39.9970 -10.7436 -0.0000 0.0000 -11.6350 10.8889 -2.7973 -0.5379 -7.1250 0.0000 -0.0000 -11.9708 27.0756 5.3188 0.0000 0.0000 0.0000 84.5972 -5.2507 18.1172 -14.8614 23.9527 -3.1695 0.0000 -0.0000 -3.3073 -20.7642 -6.2355 2.3582 7.1250 -0.0000 -0.0000 5.0419 -36.6044 1.0443
-0.6669 16.8941 -25.8604 -8.7859 2.4461 8.2148 0.0000 0.0000 0.0000 2.7777 -16.0680 -47.1258 3.5961 11.6026 34.3401 0.1304 5.5860 -11.0479 0.8828 -5.9895 -16.7540 0.0000 0.0000 0.0000 32.7892 -1.3458 7.9414 -0.8227 -5.7874 16.1688 0.3433 -23.2707 -30.5245 -0.0014 0.2382 -0.6545 8.6511 -0.0217 9.4242 6.2486 1.0840 1.6828 1.5480 0.4678 -3.4999 9.3724 3.0771 -19.4932 -11.1373 2.9389 4.4605 -4.7749 0.8798 4.7934 -0.0000 -0.0000 0.0000 -84.7092 4.9118 42.1200 29.1758 -40.1764 -10.8739 -0.0000 0.0000 -11.5372 10.9907 -2.9877 -0.5800 -7.1250 0.0000 -0.0000 -11.8751 26.8856 5.3288 -0.0000 -0.0000 0.0000 84.8744 -5.0111 18.5308 -14.6073 23.5963 -3.0670 0.0000 -0.0000 -2.9853 -20.6837 -6.0463 2.2773 7.1250 -0.0000 -0.0000 5.0897 -36.3988 1.0799
-0.6533 16.8425 -25.7196 -8.8757 2.9078 8.3651 0.0000 0.0000 0.0000 2.8550 -16.2167 -48.0501 3.9572 12.1033 36.0983 0.1350 5.1564 -10.6934 0.8809 -5.9834 -16.7362 0.0000 0.0000 0.0000 32.9996 -1.6054 8.3304 -0.8012 -5.7131 15.9542 0.3465 -23.5729 -30.9576 -0.0018 0.2756 -0.7574 8.7159 0.1216 9.4623 6.2204 1.2955 1.5892 1.4572 0.5673 -3.6104 9.1030 2.9461 -19.3900 -11.0625 2.7975 4.0067 -4.7164 0.8168 4.6168 0.0000 0.0000 0.0000 -84.8633 5.2410 41.9459 29.3776 -40.3539 -11.0044 -0.0000 0.0000 -11.4485 11.1119 -3.2133 -0.6308 -7.1250 0.0000 -0.0000 -11.7621 26.6604 5.3397 0.0000 0.0000 0.0000 85.1510 -4.7987 19.0629 -14.4067 23.3131 -2.9872 0.0000 -0.0000 -2.7593 -20.5904 -5.8576 2.1957 7.1250 -0.0000 -0.0000 5.1484 -36.1933 1.1184
-0.6392 16.7894 -25.5773 -8.9505 3.3802 8.5333 0.0000 0.0000 0.0000 2.9208 -16.3575 -49.0563 4.3723 12.6401 38.0356 0.1451 4.7641 -10.5075 0.8677 -5.9395 -16.6090 0.0000 0.0000 0.0000 33.2051 -1.8521 8.6977 -0.7822 -5.6463 15.7615 0.3502 -23.8772 -31.3899 -0.0027 0.3355 -0.9218 8.7746 0.2705 9.5176 6.1723 1.5168 1.4829 1.3468 0.6705 -3.7425 8.7409 2.7815 -19.3573 -10.9015 2.6214 3.5775 -4.6185 0.7390 4.4528 0.0000 0.0000 0.0000 -85.0003 5.5850 41.7046 29.5868 -40.5366 -11.1401 -0.0000 0.0000 -11.3678 11.2443 -3.4868 -0.6927 -7.1250 0.0000 -0.0000 -11.6368 26.3867 5.3568 0.0000 0.0000 0.0000 85.4333 -4.6056 19.7145 -14.2652 23.1125 -2.9314 0.0000 -0.0000 -2.6748 -20.4684 -5.6837 2.1170 7.1250 -0.0000 -0.0000 5.2325 -36.0022 1.1613
-0.6249 16.7353 -25.4333 -8.9923 3.9045 8.7272 0.0000 0.0000 0.0000 2.9645 -16.5382 -50.1092 4.8183 13.1763 40.0319 0.1579 4.4205 -10.4404 0.8486 -5.8754 -16.4234 0.0000 0.0000 0.0000 33.3881 -2.1655 9.1052 -0.7478 -5.5235 15.4080 0.3791 -24.2122 -31.7019 -0.0043 0.4234 -1.1633 8.8264 0.4098 9.5484 6.0986 1.7203 1.3751 1.2153 0.7649 -3.8617 8.3786 2.6227 -19.4215 -10.7413 2.4482 3.1659 -4.5212 0.6603 4.3106 -0.0000 -0.0000 0.0000 -85.1214 5.9308 41.3916 29.8225 -40.7408 -11.2936 -0.0000 0.0000 -11.3381 11.3901 -3.7398 -0.7528 -7.1250 0.0000 -0.0000 -11.5045 26.1329 5.3634 -0.0000 -0.0000 0.0000 85.7259 -4.3989 20.4725 -14.1794 22.9906 -2.8978 0.0000 -0.0000 -2.7195 -20.3315 -5.5625 2.0570 7.1250 -0.0000 -0.0000 5.3343 -35.8666 1.2017
-0.6093 16.6802 -25.2861 -9.0124 4.4304 8.9311 0.0000 0.0000 0.0000 3.0138 -16.7524 -51.1892 5.2990 13.7128 42.0988 0.1744 4.1401 -10.5168 0.8245 -5.7933 -16.1860 0.0000 0.0000 0.0000 33.5502 -2.5047 9.5061 -0.7139 -5.3997 15.0521 0.4189 -24.5653 -31.9754 -0.0073 0.5506 -1.5129 8.8790 0.5544 9.5856 5.9983 1.9308 1.2643 1.0540 0.8620 -3.9855 8.0285 2.4495 -19.5241 -10.5960 2.2535 2.7663 -4.4331 0.5699 4.1774 -0.0000 0.0000 0.0000 -85.2166 6.2974 41.0284 30.1060 -40.9841 -11.4791 -0.0000 0.0000 -11.3840 11.5485 -3.9165 -0.7996 -7.1250 0.0000 -0.0000 -11.3703 25.9548 5.3468 -0.0000 0.0000 0.0000 86.0271 -4.2016 21.3202 -14.1519 22.9514 -2.8871 0.0000 -0.0000 -2.9018 -20.1610 -5.4703 2.0046 7.1250 -0.0000 -0.0000 5.4669 -35.7602 1.2461
-0.5937 16.6237 -25.1360 -9.0129 4.9785 9.1452 0.0000 0.0000 0.0000 3.0732 -17.0093 -52.2794 5.7986 14.2303 44.1680 0.1912 3.9227 -10.6562 0.8013 -5.7133 -15.9547 0.0000 0.0000 0.0000 33.7112 -2.8688 9.9110 -0.6784 -5.2664 14.6699 0.4789 -24.9655 -32.1971 -0.0122 0.7117 -1.9560 8.9241 0.6967 9.6072 5.8805 2.1347 1.1504 0.8790 0.9557 -4.1025 7.7073 2.2824 -19.6610 -10.4979 2.0653 2.3900 -4.3646 0.4797 4.0595 -0.0000 0.0000 0.0000 -85.2901 6.6887 40.6185 30.4379 -41.2658 -11.6973 -0.0000 0.0000 -11.4879 11.7320 -3.9376 -0.8170 -7.1250 0.0000 -0.0000 -11.2314 25.9319 5.2852 -0.0000 0.0000 0.0000 86.3235 -4.0065 22.2612 -14.1721 22.9801 -2.8949 0.0000 -0.0000 -3.1741 -19.9774 -5.4014 1.9599 7.1250 -0.0000 -0.0000 5.6126 -35.6782 1.2908
